<mxfile host="app.diagrams.net" modified="2023-11-09T09:08:58.633Z" agent="Mozilla/5.0 (Windows NT 10.0; Win64; x64) AppleWebKit/537.36 (KHTML, like Gecko) Chrome/119.0.0.0 Safari/537.36 Edg/119.0.0.0" etag="7VRgUIFxHd6amzMP8g9K" version="22.1.0" type="github">
  <diagram name="Page-1" id="wuofGZKgwK-js_nQWKqF">
    <mxGraphModel dx="1332" dy="728" grid="1" gridSize="10" guides="1" tooltips="1" connect="1" arrows="1" fold="1" page="1" pageScale="1" pageWidth="827" pageHeight="1169" math="0" shadow="0">
      <root>
        <mxCell id="0" />
        <mxCell id="1" parent="0" />
        <mxCell id="CHzbfjj1ZIRkGf9tCg_J-69" value="" style="rounded=0;whiteSpace=wrap;html=1;movable=1;resizable=1;rotatable=1;deletable=1;editable=1;locked=0;connectable=1;strokeColor=none;fillColor=none;" vertex="1" parent="1">
          <mxGeometry x="410" y="270" width="850" height="540" as="geometry" />
        </mxCell>
        <mxCell id="CHzbfjj1ZIRkGf9tCg_J-10" value="Server Instances" style="text;html=1;strokeColor=none;fillColor=none;align=center;verticalAlign=middle;whiteSpace=wrap;rounded=0;fontStyle=1;fontColor=#000000;fontSize=30;fontFamily=Comic Sans MS;labelPosition=center;verticalLabelPosition=middle;" vertex="1" parent="1">
          <mxGeometry x="575" y="290" width="520" height="70" as="geometry" />
        </mxCell>
        <mxCell id="CHzbfjj1ZIRkGf9tCg_J-15" value="" style="group" vertex="1" connectable="0" parent="1">
          <mxGeometry x="900" y="450" width="260" height="260" as="geometry" />
        </mxCell>
        <mxCell id="CHzbfjj1ZIRkGf9tCg_J-9" value="" style="whiteSpace=wrap;html=1;aspect=fixed;fillColor=#dae8fc;strokeColor=#6c8ebf;" vertex="1" parent="CHzbfjj1ZIRkGf9tCg_J-15">
          <mxGeometry width="230" height="230" as="geometry" />
        </mxCell>
        <mxCell id="CHzbfjj1ZIRkGf9tCg_J-11" value="Custom Server" style="text;html=1;strokeColor=none;fillColor=none;align=center;verticalAlign=middle;whiteSpace=wrap;rounded=0;fontSize=19;fontFamily=Comic Sans MS;fontStyle=1" vertex="1" parent="CHzbfjj1ZIRkGf9tCg_J-15">
          <mxGeometry x="10" y="30" width="210" height="30" as="geometry" />
        </mxCell>
        <mxCell id="CHzbfjj1ZIRkGf9tCg_J-12" value="" style="pointerEvents=1;shadow=0;dashed=0;html=1;strokeColor=none;fillColor=#4495D1;labelPosition=center;verticalLabelPosition=bottom;verticalAlign=top;align=center;outlineConnect=0;shape=mxgraph.veeam.cpu;" vertex="1" parent="CHzbfjj1ZIRkGf9tCg_J-15">
          <mxGeometry x="75" y="75" width="80" height="80" as="geometry" />
        </mxCell>
        <mxCell id="CHzbfjj1ZIRkGf9tCg_J-14" value="" style="shape=image;html=1;verticalAlign=top;verticalLabelPosition=bottom;labelBackgroundColor=#ffffff;imageAspect=0;aspect=fixed;image=https://cdn0.iconfinder.com/data/icons/social-media-2127/48/social_media_social_media_logo_docker-128.png" vertex="1" parent="CHzbfjj1ZIRkGf9tCg_J-15">
          <mxGeometry y="130" width="100" height="100" as="geometry" />
        </mxCell>
        <mxCell id="CHzbfjj1ZIRkGf9tCg_J-17" value="" style="whiteSpace=wrap;html=1;aspect=fixed;fillColor=#dae8fc;strokeColor=#6c8ebf;" vertex="1" parent="CHzbfjj1ZIRkGf9tCg_J-15">
          <mxGeometry x="10" y="10" width="230" height="230" as="geometry" />
        </mxCell>
        <mxCell id="CHzbfjj1ZIRkGf9tCg_J-22" value="" style="group" vertex="1" connectable="0" parent="CHzbfjj1ZIRkGf9tCg_J-15">
          <mxGeometry x="30" y="20" width="240" height="240" as="geometry" />
        </mxCell>
        <mxCell id="CHzbfjj1ZIRkGf9tCg_J-24" value="Custom Server" style="text;html=1;strokeColor=none;fillColor=none;align=center;verticalAlign=middle;whiteSpace=wrap;rounded=0;fontSize=19;fontFamily=Comic Sans MS;fontStyle=1" vertex="1" parent="CHzbfjj1ZIRkGf9tCg_J-22">
          <mxGeometry x="10" y="30" width="210" height="30" as="geometry" />
        </mxCell>
        <mxCell id="CHzbfjj1ZIRkGf9tCg_J-25" value="" style="pointerEvents=1;shadow=0;dashed=0;html=1;strokeColor=none;fillColor=#4495D1;labelPosition=center;verticalLabelPosition=bottom;verticalAlign=top;align=center;outlineConnect=0;shape=mxgraph.veeam.cpu;" vertex="1" parent="CHzbfjj1ZIRkGf9tCg_J-22">
          <mxGeometry x="75" y="75" width="80" height="80" as="geometry" />
        </mxCell>
        <mxCell id="CHzbfjj1ZIRkGf9tCg_J-26" value="" style="shape=image;html=1;verticalAlign=top;verticalLabelPosition=bottom;labelBackgroundColor=#ffffff;imageAspect=0;aspect=fixed;image=https://cdn0.iconfinder.com/data/icons/social-media-2127/48/social_media_social_media_logo_docker-128.png" vertex="1" parent="CHzbfjj1ZIRkGf9tCg_J-22">
          <mxGeometry y="130" width="100" height="100" as="geometry" />
        </mxCell>
        <mxCell id="CHzbfjj1ZIRkGf9tCg_J-44" value="" style="group;movable=1;resizable=1;rotatable=1;deletable=1;editable=1;locked=0;connectable=1;" vertex="1" connectable="0" parent="1">
          <mxGeometry x="480" y="450" width="230" height="230" as="geometry" />
        </mxCell>
        <mxCell id="CHzbfjj1ZIRkGf9tCg_J-36" value="" style="whiteSpace=wrap;html=1;aspect=fixed;fillColor=#dae8fc;strokeColor=#6c8ebf;container=0;movable=1;resizable=1;rotatable=1;deletable=1;editable=1;locked=0;connectable=1;" vertex="1" parent="CHzbfjj1ZIRkGf9tCg_J-44">
          <mxGeometry width="230" height="230" as="geometry" />
        </mxCell>
        <mxCell id="CHzbfjj1ZIRkGf9tCg_J-37" value="Client" style="text;html=1;strokeColor=none;fillColor=none;align=center;verticalAlign=middle;whiteSpace=wrap;rounded=0;fontSize=19;fontFamily=Comic Sans MS;fontStyle=1;container=0;movable=1;resizable=1;rotatable=1;deletable=1;editable=1;locked=0;connectable=1;" vertex="1" parent="CHzbfjj1ZIRkGf9tCg_J-44">
          <mxGeometry x="10" y="20" width="210" height="30" as="geometry" />
        </mxCell>
        <mxCell id="CHzbfjj1ZIRkGf9tCg_J-40" value="" style="verticalLabelPosition=bottom;html=1;verticalAlign=top;align=center;strokeColor=none;fillColor=#00BEF2;shape=mxgraph.azure.user;movable=1;resizable=1;rotatable=1;deletable=1;editable=1;locked=0;connectable=1;" vertex="1" parent="CHzbfjj1ZIRkGf9tCg_J-44">
          <mxGeometry x="80" y="85" width="60" height="60" as="geometry" />
        </mxCell>
        <mxCell id="CHzbfjj1ZIRkGf9tCg_J-41" value="" style="shape=image;html=1;verticalAlign=top;verticalLabelPosition=bottom;labelBackgroundColor=#ffffff;imageAspect=0;aspect=fixed;image=https://cdn4.iconfinder.com/data/icons/social-media-2273/64/social_media_network_online_windows-128.png;movable=1;resizable=1;rotatable=1;deletable=1;editable=1;locked=0;connectable=1;" vertex="1" parent="CHzbfjj1ZIRkGf9tCg_J-44">
          <mxGeometry x="5" y="170" width="50" height="50" as="geometry" />
        </mxCell>
        <mxCell id="CHzbfjj1ZIRkGf9tCg_J-42" value="" style="shape=image;html=1;verticalAlign=top;verticalLabelPosition=bottom;labelBackgroundColor=#ffffff;imageAspect=0;aspect=fixed;image=https://cdn1.iconfinder.com/data/icons/unicons-line-vol-4/24/linux-128.png;movable=1;resizable=1;rotatable=1;deletable=1;editable=1;locked=0;connectable=1;" vertex="1" parent="CHzbfjj1ZIRkGf9tCg_J-44">
          <mxGeometry x="90" y="170" width="50" height="50" as="geometry" />
        </mxCell>
        <mxCell id="CHzbfjj1ZIRkGf9tCg_J-43" value="" style="dashed=0;outlineConnect=0;html=1;align=center;labelPosition=center;verticalLabelPosition=bottom;verticalAlign=top;shape=mxgraph.weblogos.android;fillColor=#A4CA39;strokeColor=none;movable=1;resizable=1;rotatable=1;deletable=1;editable=1;locked=0;connectable=1;" vertex="1" parent="CHzbfjj1ZIRkGf9tCg_J-44">
          <mxGeometry x="170" y="170" width="40" height="50" as="geometry" />
        </mxCell>
        <mxCell id="CHzbfjj1ZIRkGf9tCg_J-45" value="" style="group;movable=1;resizable=1;rotatable=1;deletable=1;editable=1;locked=0;connectable=1;" vertex="1" connectable="0" parent="1">
          <mxGeometry x="490" y="460" width="230" height="230" as="geometry" />
        </mxCell>
        <mxCell id="CHzbfjj1ZIRkGf9tCg_J-46" value="" style="whiteSpace=wrap;html=1;aspect=fixed;fillColor=#dae8fc;strokeColor=#6c8ebf;container=0;movable=1;resizable=1;rotatable=1;deletable=1;editable=1;locked=0;connectable=1;" vertex="1" parent="CHzbfjj1ZIRkGf9tCg_J-45">
          <mxGeometry width="230" height="230" as="geometry" />
        </mxCell>
        <mxCell id="CHzbfjj1ZIRkGf9tCg_J-47" value="Client" style="text;html=1;strokeColor=none;fillColor=none;align=center;verticalAlign=middle;whiteSpace=wrap;rounded=0;fontSize=19;fontFamily=Comic Sans MS;fontStyle=1;container=0;movable=1;resizable=1;rotatable=1;deletable=1;editable=1;locked=0;connectable=1;" vertex="1" parent="CHzbfjj1ZIRkGf9tCg_J-45">
          <mxGeometry x="10" y="20" width="210" height="30" as="geometry" />
        </mxCell>
        <mxCell id="CHzbfjj1ZIRkGf9tCg_J-48" value="" style="verticalLabelPosition=bottom;html=1;verticalAlign=top;align=center;strokeColor=none;fillColor=#00BEF2;shape=mxgraph.azure.user;movable=1;resizable=1;rotatable=1;deletable=1;editable=1;locked=0;connectable=1;" vertex="1" parent="CHzbfjj1ZIRkGf9tCg_J-45">
          <mxGeometry x="80" y="85" width="60" height="60" as="geometry" />
        </mxCell>
        <mxCell id="CHzbfjj1ZIRkGf9tCg_J-49" value="" style="shape=image;html=1;verticalAlign=top;verticalLabelPosition=bottom;labelBackgroundColor=#ffffff;imageAspect=0;aspect=fixed;image=https://cdn4.iconfinder.com/data/icons/social-media-2273/64/social_media_network_online_windows-128.png;movable=1;resizable=1;rotatable=1;deletable=1;editable=1;locked=0;connectable=1;" vertex="1" parent="CHzbfjj1ZIRkGf9tCg_J-45">
          <mxGeometry x="5" y="170" width="50" height="50" as="geometry" />
        </mxCell>
        <mxCell id="CHzbfjj1ZIRkGf9tCg_J-50" value="" style="shape=image;html=1;verticalAlign=top;verticalLabelPosition=bottom;labelBackgroundColor=#ffffff;imageAspect=0;aspect=fixed;image=https://cdn1.iconfinder.com/data/icons/unicons-line-vol-4/24/linux-128.png;movable=1;resizable=1;rotatable=1;deletable=1;editable=1;locked=0;connectable=1;" vertex="1" parent="CHzbfjj1ZIRkGf9tCg_J-45">
          <mxGeometry x="90" y="170" width="50" height="50" as="geometry" />
        </mxCell>
        <mxCell id="CHzbfjj1ZIRkGf9tCg_J-51" value="" style="dashed=0;outlineConnect=0;html=1;align=center;labelPosition=center;verticalLabelPosition=bottom;verticalAlign=top;shape=mxgraph.weblogos.android;fillColor=#A4CA39;strokeColor=none;movable=1;resizable=1;rotatable=1;deletable=1;editable=1;locked=0;connectable=1;" vertex="1" parent="CHzbfjj1ZIRkGf9tCg_J-45">
          <mxGeometry x="170" y="170" width="40" height="50" as="geometry" />
        </mxCell>
        <mxCell id="CHzbfjj1ZIRkGf9tCg_J-52" value="" style="group;movable=1;resizable=1;rotatable=1;deletable=1;editable=1;locked=0;connectable=1;" vertex="1" connectable="0" parent="1">
          <mxGeometry x="500" y="470" width="240" height="240" as="geometry" />
        </mxCell>
        <mxCell id="CHzbfjj1ZIRkGf9tCg_J-53" value="" style="whiteSpace=wrap;html=1;aspect=fixed;fillColor=#dae8fc;strokeColor=#6c8ebf;container=0;movable=1;resizable=1;rotatable=1;deletable=1;editable=1;locked=0;connectable=1;" vertex="1" parent="CHzbfjj1ZIRkGf9tCg_J-52">
          <mxGeometry width="230" height="230" as="geometry" />
        </mxCell>
        <mxCell id="CHzbfjj1ZIRkGf9tCg_J-54" value="Client" style="text;html=1;strokeColor=none;fillColor=none;align=center;verticalAlign=middle;whiteSpace=wrap;rounded=0;fontSize=19;fontFamily=Comic Sans MS;fontStyle=1;container=0;movable=1;resizable=1;rotatable=1;deletable=1;editable=1;locked=0;connectable=1;" vertex="1" parent="CHzbfjj1ZIRkGf9tCg_J-52">
          <mxGeometry x="10" y="20" width="210" height="30" as="geometry" />
        </mxCell>
        <mxCell id="CHzbfjj1ZIRkGf9tCg_J-55" value="" style="verticalLabelPosition=bottom;html=1;verticalAlign=top;align=center;strokeColor=none;fillColor=#00BEF2;shape=mxgraph.azure.user;movable=1;resizable=1;rotatable=1;deletable=1;editable=1;locked=0;connectable=1;" vertex="1" parent="CHzbfjj1ZIRkGf9tCg_J-52">
          <mxGeometry x="80" y="85" width="60" height="60" as="geometry" />
        </mxCell>
        <mxCell id="CHzbfjj1ZIRkGf9tCg_J-56" value="" style="shape=image;html=1;verticalAlign=top;verticalLabelPosition=bottom;labelBackgroundColor=#ffffff;imageAspect=0;aspect=fixed;image=https://cdn4.iconfinder.com/data/icons/social-media-2273/64/social_media_network_online_windows-128.png;movable=1;resizable=1;rotatable=1;deletable=1;editable=1;locked=0;connectable=1;" vertex="1" parent="CHzbfjj1ZIRkGf9tCg_J-52">
          <mxGeometry x="5" y="170" width="50" height="50" as="geometry" />
        </mxCell>
        <mxCell id="CHzbfjj1ZIRkGf9tCg_J-57" value="" style="shape=image;html=1;verticalAlign=top;verticalLabelPosition=bottom;labelBackgroundColor=#ffffff;imageAspect=0;aspect=fixed;image=https://cdn1.iconfinder.com/data/icons/unicons-line-vol-4/24/linux-128.png;movable=1;resizable=1;rotatable=1;deletable=1;editable=1;locked=0;connectable=1;" vertex="1" parent="CHzbfjj1ZIRkGf9tCg_J-52">
          <mxGeometry x="90" y="170" width="50" height="50" as="geometry" />
        </mxCell>
        <mxCell id="CHzbfjj1ZIRkGf9tCg_J-58" value="" style="dashed=0;outlineConnect=0;html=1;align=center;labelPosition=center;verticalLabelPosition=bottom;verticalAlign=top;shape=mxgraph.weblogos.android;fillColor=#A4CA39;strokeColor=none;movable=1;resizable=1;rotatable=1;deletable=1;editable=1;locked=0;connectable=1;" vertex="1" parent="CHzbfjj1ZIRkGf9tCg_J-52">
          <mxGeometry x="170" y="170" width="40" height="50" as="geometry" />
        </mxCell>
        <mxCell id="CHzbfjj1ZIRkGf9tCg_J-59" value="" style="group;movable=1;resizable=1;rotatable=1;deletable=1;editable=1;locked=0;connectable=1;" vertex="1" connectable="0" parent="CHzbfjj1ZIRkGf9tCg_J-52">
          <mxGeometry x="10" y="10" width="230" height="230" as="geometry" />
        </mxCell>
        <mxCell id="CHzbfjj1ZIRkGf9tCg_J-60" value="" style="whiteSpace=wrap;html=1;aspect=fixed;fillColor=#dae8fc;strokeColor=#6c8ebf;container=0;movable=1;resizable=1;rotatable=1;deletable=1;editable=1;locked=0;connectable=1;" vertex="1" parent="CHzbfjj1ZIRkGf9tCg_J-59">
          <mxGeometry width="230" height="230" as="geometry" />
        </mxCell>
        <mxCell id="CHzbfjj1ZIRkGf9tCg_J-61" value="Client" style="text;html=1;strokeColor=none;fillColor=none;align=center;verticalAlign=middle;whiteSpace=wrap;rounded=0;fontSize=19;fontFamily=Comic Sans MS;fontStyle=1;container=0;movable=1;resizable=1;rotatable=1;deletable=1;editable=1;locked=0;connectable=1;" vertex="1" parent="CHzbfjj1ZIRkGf9tCg_J-59">
          <mxGeometry x="10" y="20" width="210" height="30" as="geometry" />
        </mxCell>
        <mxCell id="CHzbfjj1ZIRkGf9tCg_J-62" value="" style="verticalLabelPosition=bottom;html=1;verticalAlign=top;align=center;strokeColor=none;fillColor=#00BEF2;shape=mxgraph.azure.user;movable=1;resizable=1;rotatable=1;deletable=1;editable=1;locked=0;connectable=1;" vertex="1" parent="CHzbfjj1ZIRkGf9tCg_J-59">
          <mxGeometry x="80" y="85" width="60" height="60" as="geometry" />
        </mxCell>
        <mxCell id="CHzbfjj1ZIRkGf9tCg_J-63" value="" style="shape=image;html=1;verticalAlign=top;verticalLabelPosition=bottom;labelBackgroundColor=#ffffff;imageAspect=0;aspect=fixed;image=https://cdn4.iconfinder.com/data/icons/social-media-2273/64/social_media_network_online_windows-128.png;movable=1;resizable=1;rotatable=1;deletable=1;editable=1;locked=0;connectable=1;" vertex="1" parent="CHzbfjj1ZIRkGf9tCg_J-59">
          <mxGeometry x="5" y="170" width="50" height="50" as="geometry" />
        </mxCell>
        <mxCell id="CHzbfjj1ZIRkGf9tCg_J-64" value="" style="shape=image;html=1;verticalAlign=top;verticalLabelPosition=bottom;labelBackgroundColor=#ffffff;imageAspect=0;aspect=fixed;image=https://cdn1.iconfinder.com/data/icons/unicons-line-vol-4/24/linux-128.png;movable=1;resizable=1;rotatable=1;deletable=1;editable=1;locked=0;connectable=1;" vertex="1" parent="CHzbfjj1ZIRkGf9tCg_J-59">
          <mxGeometry x="90" y="170" width="50" height="50" as="geometry" />
        </mxCell>
        <mxCell id="CHzbfjj1ZIRkGf9tCg_J-65" value="" style="dashed=0;outlineConnect=0;html=1;align=center;labelPosition=center;verticalLabelPosition=bottom;verticalAlign=top;shape=mxgraph.weblogos.android;fillColor=#A4CA39;strokeColor=none;movable=1;resizable=1;rotatable=1;deletable=1;editable=1;locked=0;connectable=1;" vertex="1" parent="CHzbfjj1ZIRkGf9tCg_J-59">
          <mxGeometry x="170" y="170" width="40" height="50" as="geometry" />
        </mxCell>
        <mxCell id="CHzbfjj1ZIRkGf9tCg_J-67" value="" style="shape=flexArrow;endArrow=classic;html=1;rounded=0;entryX=0.5;entryY=0;entryDx=0;entryDy=0;fillColor=#7EA6E0;strokeColor=none;" edge="1" parent="1" source="CHzbfjj1ZIRkGf9tCg_J-60" target="CHzbfjj1ZIRkGf9tCg_J-26">
          <mxGeometry width="50" height="50" relative="1" as="geometry">
            <mxPoint x="910" y="600" as="sourcePoint" />
            <mxPoint x="960" y="550" as="targetPoint" />
          </mxGeometry>
        </mxCell>
      </root>
    </mxGraphModel>
  </diagram>
</mxfile>
